<svg width="756" height="181" viewBox="0 0 756 181" fill="none" xmlns="http://www.w3.org/2000/svg">
<mask id="mask0_30_2" style="mask-type:alpha" maskUnits="userSpaceOnUse" x="0" y="0" width="756" height="182">
<path d="M539.553 174.379C538.506 176.624 539.721 174.662 539.589 175.148C539.48 175.538 538.578 176.655 539.269 176.123C538.409 176.853 535.808 180.8 535.623 180.996C535.525 181.079 535.167 180.447 535.743 179.764C537.562 177.623 536.73 179.504 539.553 174.379Z" fill="white"/>
<path d="M667.854 180.618C667.662 180.78 665.505 180.763 664.736 180.786C665.248 180.578 666.795 180.637 667.854 180.618Z" fill="white"/>
<path d="M539.691 178.841C540.569 177.93 538.95 180.627 538.512 180.738C538.438 180.746 539.521 179.018 539.691 178.841Z" fill="white"/>
<path d="M657.624 180.319C657.389 179.968 660.609 180.504 661.751 180.495C661.996 180.853 658.749 180.408 657.624 180.319Z" fill="white"/>
<path d="M683.014 178.696C683.077 178.901 683.093 178.831 682.26 179.029C668.714 181.526 671.671 180.52 683.014 178.696Z" fill="white"/>
<path d="M539.062 178.678C539.72 177.96 538.585 179.772 538.161 180.255C538.02 180.229 538.96 178.791 539.062 178.678Z" fill="white"/>
<path d="M673.185 159.433C674.315 159.601 669.923 160.478 668.946 160.296C668.888 160.149 673.027 159.45 673.185 159.433Z" fill="white"/>
<path d="M665.648 160C666.083 159.834 666.803 160.241 666.696 160.261C666.278 160.338 665.308 160.131 665.648 160Z" fill="white"/>
<path d="M665.541 159.128C670.141 158.964 668.257 159.316 668.433 159.358C668.655 159.381 669.36 159.218 669.507 159.244C672.982 159.853 666.428 159.815 664.58 159.802C666.397 159.465 668.699 159.444 665.541 159.128Z" fill="white"/>
<path d="M664.796 159.111C664.997 159.168 664.414 159.357 664.156 159.349C663.138 159.319 664.257 158.962 664.796 159.111Z" fill="white"/>
<path d="M658.408 158.841C659.18 158.65 661.893 159.122 660.588 159.189C660.388 159.202 658.938 158.881 658.408 158.841Z" fill="white"/>
<path d="M654.545 158.537C649.355 157.269 654.193 158.422 655.502 158.548C655.994 158.604 655.62 158.333 656.065 158.376L656.069 158.377C659.585 158.627 658.611 159.845 654.085 158.617C654.238 158.591 654.392 158.565 654.545 158.537Z" fill="white"/>
<path d="M651.047 158.079C651.262 157.972 652.798 158.367 653.347 158.459C652.94 158.597 651.812 158.286 651.047 158.079Z" fill="white"/>
<path d="M650.064 156.551C649.911 156.996 651.456 157.577 652.323 157.325C652.731 157.812 651.082 157.508 650.05 157.066C649.813 156.966 649.029 156.351 650.064 156.551Z" fill="white"/>
<path d="M694.468 153.128C693.973 153.475 692.964 153.855 692.313 154.164C692.363 153.988 694.169 153.119 694.468 153.128Z" fill="white"/>
<path d="M697.217 151.462C696.4 152.001 695.37 152.429 694.441 152.897C694.793 152.583 696.761 151.518 697.217 151.462Z" fill="white"/>
<path d="M610.706 133.947C615.302 137.576 615.328 138.697 611.449 135.022C611.373 134.951 610.376 133.782 610.706 133.947Z" fill="white"/>
<path d="M724.5 131.051C721.86 133.282 733.598 121.375 727.244 128.7C727.489 128.291 727.735 127.879 727.98 127.466C727.041 128.323 725.997 129.438 726.107 129.579C726.069 129.578 726.005 129.6 725.914 129.65C725.82 129.705 724.947 130.698 724.5 131.051Z" fill="white"/>
<path d="M711.936 108.735C712.626 109.241 713.365 109.728 713.432 110.107C713.028 109.718 711.751 108.806 711.936 108.735Z" fill="white"/>
<path d="M705.134 103.177C705.662 103.28 708.526 105.526 708.956 106.117C708.258 105.916 704.44 102.978 705.134 103.177Z" fill="white"/>
<path d="M641.541 95.5023C641.579 95.4972 641.601 95.7484 641.565 95.773C640.63 96.3905 640.561 95.6388 641.541 95.5023Z" fill="white"/>
<path d="M647.37 94.3195C647.764 94.2777 646.512 94.914 646.652 94.9027C646.945 94.8677 647.17 94.823 647.346 94.7719C646.198 95.211 644.992 95.6815 644.857 95.6768C644.225 95.6478 645.894 95.1566 645.936 95.1335C645.995 95.0799 644.67 94.6212 647.37 94.3195Z" fill="white"/>
<path d="M689.719 95.0408C689.76 95.0471 690.708 95.4702 690.753 95.5023C691.514 96.0971 688.647 94.8166 689.719 95.0408Z" fill="white"/>
<path d="M644.463 95.0336C644.336 94.9085 646.384 94.0374 646.647 94.3595C646.193 94.4735 644.555 95.0965 644.463 95.0336Z" fill="white"/>
<path d="M648.632 93.9543C650.408 93.5652 649.168 94.0702 647.657 94.652C648.12 94.4146 648.035 94.0926 648.632 93.9543Z" fill="white"/>
<path d="M652.479 92.6443C652.017 92.9618 650.3 93.2986 649.55 93.4328C649.984 93.0392 651.637 92.794 652.479 92.6443Z" fill="white"/>
<path d="M674.824 92.0774C675.211 91.9181 676.325 92.1815 677.084 92.3499C676.685 92.4884 675.576 92.2083 674.824 92.0774Z" fill="white"/>
<path d="M660.404 91.2961C661.531 91.2515 660.062 91.6522 660.159 91.665C660.291 91.6697 662.009 91.3605 661.971 91.585C661.933 91.7396 660.085 91.7883 659.632 91.8812C659.055 91.9915 659.79 92.1707 658.811 92.2318C658.196 92.2744 658.473 91.7679 658.34 91.7613C658.225 91.7481 656.115 92.3443 656.887 91.7395L656.883 91.7376C657.11 91.5573 658.703 91.4093 659.069 91.4288C659.132 91.4326 658.908 91.8206 659.61 91.714C660.176 91.6312 659.287 91.3495 660.404 91.2961Z" fill="white"/>
<path d="M675.67 91.9666C675.356 91.8291 677.075 91.9984 677.578 92.1901C677.497 92.3339 675.876 92.0475 675.67 91.9666Z" fill="white"/>
<path d="M665.365 90.5094C666.338 90.5794 665.385 90.8519 664.741 90.7674C664.688 90.7583 664.507 90.4549 665.365 90.5094Z" fill="white"/>
<path d="M668.922 90.037C669.128 90.039 669.383 90.3074 669.454 90.3168C669.618 90.3009 673.386 90.58 671.918 90.7601C671.658 90.7271 666.319 90.298 665.608 90.3368C665.338 89.9799 667.639 90.3291 668.195 90.3295C668.294 90.3271 668.372 90.0335 668.922 90.037Z" fill="white"/>
<path d="M676.426 89.7208C675.825 89.333 678.711 89.9933 678.774 90.0552C679.222 90.3321 676.92 90.0162 676.426 89.7208Z" fill="white"/>
<path d="M602.989 123.523C603.075 123.49 603.152 123.492 603.218 123.552C602.991 123.634 602.94 123.61 602.989 123.523Z" fill="white"/>
<path d="M541.302 78.2996C540.945 77.4424 542.401 79.5354 542.694 80.082C543.339 81.2962 541.356 78.4213 541.302 78.2996Z" fill="white"/>
<path fill-rule="evenodd" clip-rule="evenodd" d="M545.002 62.4359C547.97 66.6066 549.697 67.6028 546.544 62.9047C547.529 64.4146 547.832 63.9727 548.136 64.4146C548.325 64.6923 549.363 67.125 549.617 65.5211C549.646 65.3185 548.626 64.1034 549.135 64.3582C551.17 67.5291 549.351 64.3663 549.357 64.3019C549.913 63.9861 554.66 71.9633 555.636 73.2176C556.753 74.6856 558.098 75.7181 558.336 76.0557C559.095 77.14 558.253 76.3911 558.344 76.688C558.44 76.9955 561.009 79.7703 561.096 79.9348C561.426 80.588 560.749 80.1698 560.78 80.2401C561.144 81.0872 564.266 85.0139 565.05 86.196C565.185 86.0445 563.531 83.743 564.832 84.9841C566.346 86.4248 565.705 87.037 565.706 87.1045C571.276 94.6677 577.034 102.056 583.074 109.177C583.358 108.809 579.172 104.32 579.14 104.167C578.944 103.538 582.423 107.608 584.591 110.239C584.634 110.197 584.678 110.153 584.722 110.11C584.671 110.036 584.617 109.962 584.565 109.887C584.64 109.932 584.714 109.986 584.791 110.043C585.035 109.805 585.283 109.562 585.534 109.318C585.248 108.812 584.999 108.346 584.849 108.054C585.156 108.397 585.468 108.737 585.777 109.08C589.078 105.884 592.774 102.403 593.172 102.052C592.793 102.267 592.413 102.484 592.033 102.703C592.97 101.918 593.91 101.145 594.851 100.384C594.535 100.766 594.219 101.15 593.905 101.535C594.989 100.644 596.333 99.4061 597.408 98.6002C597.58 98.4715 597.305 99.007 597.698 98.6892C598.094 98.37 597.816 98.1874 598.362 97.6881C598.975 97.1171 602.039 94.9206 603.064 94.1305C606.969 91.0624 610.923 88.0225 615.221 85.4583C611.037 88.4389 615.494 85.8174 616.674 84.9877C616.943 84.8155 616.57 84.2512 621.188 81.7917C624.147 80.2895 621.803 82.4463 626.598 79.5206C622.483 80.9593 626.272 79.0029 629.335 77.5855C629.843 77.3229 634.297 75.4916 636.261 74.7675C636.921 74.5101 637.88 73.8358 638.799 73.5156C639.433 73.2953 639.967 73.2953 640.91 72.9887C645.283 71.5738 649.814 70.4942 654.499 69.8763C651.895 71.0638 656.679 69.8999 656.914 69.9435C658.046 70.0093 653.041 70.7288 655.041 70.5958C657.8 70.1881 660.586 69.9234 663.391 69.8091C661.074 69.7838 666.445 69.0462 667.438 69.3748C667.064 68.4288 680.176 70.9562 682.12 71.4461C682.534 71.5132 679.966 70.4837 686.059 72.1366C686.718 72.3296 686.412 72.4685 686.764 72.5435C686.972 72.5875 688.425 72.2868 689.664 73.0632C690.079 73.3687 686.964 72.714 693.618 74.8238C691.281 73.1206 702.777 78.0513 704.665 79.4806C704.295 79.1858 703.924 78.8938 703.551 78.6048C705.505 79.8684 705.905 79.8391 706.349 80.0874C708.088 81.0751 710.38 82.6818 712.02 83.6814C713.9 84.8337 714.095 84.4457 716.115 85.9979C715.67 85.583 715.222 85.1722 714.774 84.7661C716.217 85.7387 717.657 86.7557 719.093 87.8149C715.412 85.9004 719.798 88.338 720.076 88.5471C720.514 88.843 719.776 88.5847 720.49 89.0758C720.562 89.123 720.594 88.8713 721.644 89.63C723.846 91.2424 723.335 91.2118 724.246 91.923C724.329 91.9886 724.163 91.5955 725.759 92.8278C730.844 96.8598 725.642 92.9029 725.432 92.7896C725.159 92.6307 726.349 94.5768 722.307 91.0381C723.67 92.2093 723.587 92.6167 723.741 92.7478C723.88 92.8567 726.355 94.8115 726.499 94.9264C727.781 95.8423 726.883 94.7633 727.146 94.9264C727.414 95.0929 729.927 97.6852 731.083 97.7372C731.951 99.4469 729.903 97.4821 727.613 95.6768C727.201 95.5034 729.546 97.7084 729.673 97.8316C732.812 100.638 731.455 98.6708 732.386 99.0235C732.876 99.2137 733.9 100.691 733.056 99.2198C735.961 101.853 734.022 100.448 734.177 100.65C734.409 100.953 735.527 101.82 735.615 101.932C735.766 102.118 735.047 101.668 735.684 102.367C735.791 102.482 737.095 103.327 735.782 101.856C737.641 103.716 737.668 103.399 737.942 104.4C739.938 105.012 738.473 105.756 738.943 106.311C740.19 107.795 740.354 106.873 740.453 106.913C741.155 107.268 744.615 111.355 745.535 112.24C744.764 112.2 742.784 109.233 742.057 108.631C739.874 106.834 744.528 111.679 742.641 110.683C743.335 111.151 744.031 111.628 744.728 112.113C745.412 113.547 743.825 112.045 746.682 115.025C747.419 115.273 744.703 112.881 745.408 113.219C745.822 113.409 747.437 115.184 747.543 115.167C747.659 115.125 746.123 113.583 746.478 113.724C747.256 113.994 752.232 120.368 748.084 115.841C748.934 116.816 749.139 117.725 749.688 118.539L755.334 124.635L749.61 131.919C749.384 132.131 749.172 132.375 748.98 132.68C748.462 133.492 752.804 130.141 747.314 136.067C746.942 135.963 749.359 133.61 749.412 133.502C749.465 133.382 748.456 133.321 748.357 133.374C747.996 133.638 742.921 139.858 741.423 140.777C742.24 140.626 737.103 145.296 736.674 145.862C736.565 146.024 737.285 145.719 737.155 145.886C736.35 146.929 733.41 149.006 732.11 150.15C730.693 151.404 731.031 151.419 730.952 151.491C730.324 152.027 730.709 151.467 730.331 151.8C729.757 152.334 725.811 155.604 725.549 155.834C725.498 155.89 726.353 155.557 725.472 156.337C725.319 156.461 725.209 156.168 722.591 158.372C719.425 160.995 725.113 156.959 723.968 158.267C721.56 159.505 721.924 159.819 721.328 160.22C721.109 160.363 719.439 161.091 717.721 162.315C718.918 161.401 720.045 160.503 721.141 159.604C720.007 160.367 717.754 162.082 716.713 162.683C716.211 162.976 716.413 162.43 715.378 163.136C715.159 163.281 714.741 164.585 717.271 162.411C717.658 162.505 716.245 163.242 715.686 163.712C715.603 163.785 715.511 164.441 714.569 164.688C714.329 164.727 715.62 162.271 710.895 166.425C710.738 166.559 711.447 166.342 711.293 166.479C711.184 166.578 709.737 167.354 709.594 167.464C709.453 167.579 710.23 167.352 710.061 167.497C709.182 168.243 707.519 168.291 709.552 167.188C708.834 167.495 708.115 167.793 707.399 168.08C708.404 168.197 706.427 168.814 705.51 169.313C699.485 172.512 703.72 170.787 702.759 171.497C701.15 172.62 702.049 171.093 699.594 172.546C699.369 172.654 702.67 171.751 696.456 174.114C697.353 173.734 698.25 173.337 699.145 172.926C698.39 172.647 695.932 174.322 695.664 174.424C693.173 175.454 694.81 174.666 691.161 176.236C690.834 176.373 690.062 176.476 689.368 176.763C686.483 177.965 693.339 175.693 693.609 175.769C693.729 175.928 686.268 178.259 685.914 178.206C684.73 178.288 689.384 177.134 688.42 177.088C688.082 177.257 677.126 179.972 674.785 179.912C672.182 180.08 670.908 179.361 670.961 180.237C670.159 179.436 669.547 180.052 669.207 180.062C665.15 180.129 665.146 180.097 661.658 180.055C660.888 180.036 660.257 179.734 659.985 179.759C659.827 179.775 660.1 180.074 659.321 180.101C658.223 180.204 651.857 179.06 651.429 178.765C650.984 178.541 654.114 179.145 653.589 178.8C651.314 178.428 649.144 178.069 646.914 177.515C645.988 177.281 646.506 177.224 646.107 177.123C645.929 177.093 642.709 176.383 642.831 176.472C643.079 176.853 653.061 178.926 650.382 178.651C649.854 178.616 648.147 177.839 648.327 178.382C639.373 176.327 630.959 172.842 623.283 168.61C627.91 170.673 632.989 173.34 638.145 175.084C638.847 175.334 641.227 176.145 641.012 175.811C636.611 174.396 631.293 172.372 627.465 170.316C627.345 170.252 627.896 170.269 627.449 170.013C626.611 169.547 623.643 168.423 623.219 168.076C623.158 168.021 624.875 168.593 624.482 168.172C623.477 167.096 622.643 167.859 621.606 167.269C620.803 166.855 615.729 163.211 614.323 162.636C612.756 162.053 618.05 165.246 617.536 165.231C613.746 163.266 610.466 160.667 607.288 158.377C607.235 158.342 607.576 158.868 606.863 158.383C605.618 157.53 605.493 157.031 604.939 156.546C604.341 156.03 602.081 154.312 601.872 153.989C601.845 153.948 602.479 154.053 602.555 154.102C603.598 154.765 603.691 155.351 603.776 155.425C604.098 155.695 604.518 155.823 604.815 156.063C605.304 156.456 605.492 156.781 606.145 157.287C606.596 157.636 606.322 157.086 606.754 157.423C606.913 157.557 608.281 159.335 608.829 158.932C608.705 158.846 595.178 147.666 593.979 146.505C595.04 147.566 596.092 148.598 597.208 149.661C594.982 147.505 591.982 145.446 592.297 144.694C590.659 143.163 589.048 141.611 587.464 140.041C587.447 140.067 587.431 140.099 587.411 140.13C587.296 140.304 587.202 140.427 587.126 140.511C587.251 140.628 587.377 140.745 587.502 140.862C586.42 140.527 591.441 144.113 588.463 142.063C589.645 143.205 600.554 152.731 601.523 153.473L601.527 153.475C601.795 153.737 601.079 154.329 600.093 153.072C599.965 152.909 600.853 153.327 600.76 153.179C600.689 153.091 598.176 150.835 598.044 150.741C597.899 150.65 597.863 150.999 597.711 150.913C597.542 150.821 596.093 149.243 595.289 148.526C593.773 147.18 593.448 147.198 593.321 147.089C592.957 146.762 592.463 146.083 591.732 145.408C590.233 144.041 588.444 142.371 586.693 140.657C586.53 140.607 586.314 140.577 585.732 141.2C585.541 141.392 582.394 145.181 582.322 145.348C581.664 146.742 584.57 143.556 584.575 143.631C584.558 143.823 582.295 146.606 582.194 146.691C582.091 146.766 583.533 144.229 581.459 147.016C581.762 146.75 582.067 146.484 582.371 146.22C581.417 147.549 581.036 147.441 580.764 147.732C579.919 148.641 579.494 150.027 577.699 151.155C577.224 151.453 577.622 150.643 577.559 150.677C576.97 151.018 576.956 152.073 575.99 152.5C575.921 152.527 577.063 150.629 574.656 153.642C574.858 153.463 575.061 153.283 575.263 153.105C575.001 153.593 572.616 156.718 572.27 157.129C571.258 158.312 571.826 157.034 570.897 158.299C571.863 157.795 569.039 161.563 568.889 161.115C568.883 161.937 566.144 164.927 564.999 166.457C564.284 167.406 563.016 169.496 562.771 169.79C562.473 170.145 562.282 169.832 561.727 170.465C561.566 170.65 560.289 172.827 558.734 174.397C558.432 174.701 557.449 175.088 557.788 174.366C558.363 173.137 560.254 171.31 559.961 171.139C559.642 170.956 557.789 173.894 557.221 174.613C554.56 177.972 555.677 175.738 555.518 175.758C555.121 175.826 553.775 177.744 553.694 177.817C553.369 178.082 554.139 176.6 554.017 176.472C553.85 176.315 552.209 177.936 552.442 177.471C552.779 176.803 554.257 175.301 554.324 175.18C555.14 173.653 553.351 175.269 552.766 175.655C552.588 175.769 552.934 175.055 552.822 175.173C551.094 177.012 553.116 176.026 552.101 177.344C551.198 178.518 552.006 176.775 551.964 176.797C551.9 176.851 550.867 178.291 550.609 178.451C550.484 178.515 552.59 174.362 552.237 174.35C551.441 175.588 550.646 176.833 549.853 178.084C549.467 177.955 550.918 176.38 551.014 176.176C551.202 175.768 550.334 176.66 550.262 176.548C550.218 176.472 550.815 175.139 549.971 176.14C549.682 176.483 549.355 177.423 548.198 178.596C551.163 173.729 548.734 176.821 548.516 176.892C548.31 176.945 549.605 174.526 547.753 177.275C547.048 176.959 547.596 177.077 548.027 176.229C548.555 175.191 546.819 177.224 549.397 173.889C548.967 173.877 547.04 176.669 546.915 176.803C546.808 176.91 547.094 176.197 546.891 176.383C544.523 178.582 546.02 176.983 545.138 177.482C545.053 177.534 543.226 179.888 544.466 177.984C546.726 174.52 548.167 173.364 547.685 172.177C545.518 174.432 543.965 177.892 543.446 178.665C542.65 179.85 543.308 178.512 543.159 178.618C543.105 178.662 542.422 179.682 542.398 179.686C541.227 179.934 545.492 175.18 546.552 173.438C546.141 173.809 545.73 174.181 545.32 174.553C545.736 173.949 546.153 173.345 546.57 172.744C544.362 175.459 546.422 172.789 546.381 171.695C546.37 171.453 545.259 173.469 546.426 171.094C545.236 172.615 545.48 172.036 544.628 173.578C544.434 173.386 546.453 169.989 547.24 168.654C543.832 172.946 546.431 170.958 543.285 174.55C543.055 175.455 544.292 173.571 544.235 173.749C544.011 174.41 542.877 175.492 542.382 177.415C542.304 177.727 543.315 176.872 542.224 178.424C542.101 178.595 541.179 179.418 541.163 179.399C541.064 179.135 541.809 178.202 541.762 178.102C541.713 178.012 541.013 179.124 540.977 179.134C540.714 179.003 541.518 178.151 541.348 178.238C540.976 178.427 537.733 182.039 541.448 176.965C538.758 181.451 541.331 177.69 542.384 175.954C542.652 175.512 542.585 175.304 542.956 174.666C543.432 173.846 544.147 172.969 544.404 172.548C544.679 172.096 542.609 174.324 545.22 170.825C543.6 172.409 541.722 175.869 540.256 177.495C537.29 180.785 541.41 174.572 541.811 173.912C541.915 173.736 541.331 174.165 541.395 174.047C541.497 173.857 544.028 170.431 544.115 169.978C544.197 169.525 543.226 171.255 542.985 171.247C542.823 171.233 545.578 166.918 543.903 169.126C542.746 170.648 541.168 173.864 540.356 174.005C541.909 171.683 543.506 169.329 545.089 167.022C544.017 168.142 542.944 169.27 541.873 170.405C543.639 167.768 545.408 165.719 546.913 163.085C542.131 168.513 547.785 160.884 547.822 160.708C547.8 160.647 545.654 162.616 545.298 162.931C546.594 160.725 551.043 154.503 547.809 157.683C548.418 157.125 549.261 155.319 549.23 155.307C548.824 155.314 546.446 158.897 546.626 158.17C546.838 157.316 547.877 156.661 548.59 155.637C552.288 150.358 549.915 150.748 554.05 145.784C553.923 145.852 553.797 145.917 553.672 145.982C558.084 140.415 562.585 134.975 567.272 129.624C568.087 128.201 570.003 125.671 571.963 123.278C571.108 122.278 570.258 121.275 569.416 120.267C568.194 118.713 569.265 119.236 567.072 116.815C567.489 117.566 567.907 118.315 568.328 119.061C567.305 117.699 562.862 111.886 562.046 110.994C561.94 110.88 561.457 110.991 560.282 109.558C559.25 108.296 559.359 107.892 558.878 107.167C558.475 106.561 557.908 105.966 557.789 105.783C557.7 105.642 557.82 105.465 557.606 105.127C556.926 104.057 557.092 105.217 556.855 103.82C557.06 104.048 557.265 104.276 557.47 104.503C556.62 103.235 555.6 101.388 557.075 103.092C557.329 103.383 556.973 103.24 557.146 103.468C564.028 112.338 558.849 105.043 556.221 102.058C555.818 101.055 552.346 96.6722 552.268 96.458C552.18 96.1977 552.941 96.8397 552.353 95.6967C552.214 95.4555 547.672 89.4299 549.571 91.4051C549.953 91.8042 552.019 94.8018 552.547 95.4987C551.819 93.4676 548.308 90.0944 548.014 89.6354C546.831 87.8078 550.878 92.7282 548.092 88.6943C545.955 85.5783 547.665 88.7128 546.682 87.6277C546.125 87.0167 544.046 83.2449 543.635 83.6814C542.753 82.5191 543.492 83.0373 543.412 82.8801C543.327 82.7256 541.548 80.4559 541.123 79.6096C541.071 79.5075 541.523 79.6281 541.481 79.5188C541.387 79.3082 539.776 77.0487 539.685 76.9587C539.63 76.9098 539.781 77.609 539.575 77.4202C539.328 77.1917 537.898 74.9595 537.75 74.8747C537.538 74.7691 539.437 77.4477 538.884 77.164C538.097 75.868 536.555 73.9275 535.797 73.2249C535.991 73.3922 536.817 74.612 537.082 75.0491C536.581 75.0936 534.829 72.4594 535.719 73.1667C535.182 72.6979 535.36 73.1421 535 72.9178C534.906 72.858 534.355 72.0471 534.187 71.9312C534.178 71.9546 534.579 72.8508 534.396 72.7343C534.058 72.5194 532.45 70.0239 532.349 69.7909C532.071 69.1529 533.527 71.0968 533.795 71.1645C533.834 71.1731 533.013 69.2768 533.012 69.2076C533.232 68.9186 534.288 70.9645 534.404 70.5794C534.146 70.071 533.887 69.561 533.63 69.0514C535.094 70.7097 537.198 74.1516 538.074 74.8111C536.189 72.1983 534.332 69.3596 535.003 68.9206C535.286 68.7374 536.214 69.7794 536.264 69.6982C536.407 69.3582 535.067 67.9288 535.036 67.854C535.02 67.7956 535.02 67.7624 535.034 67.7523C535.185 67.6565 536.815 69.8881 536.96 69.9562C537.209 70.0676 537.036 68.7162 537.147 68.6408C537.202 68.6741 538.393 70.2131 538.223 69.5383C538.049 68.8555 537.115 67.4311 537.093 67.3526C537.029 67.0028 538.792 69.4339 538.911 69.462C538.969 69.4733 538.301 68.0009 538.334 67.914C538.374 67.8412 539.184 68.7698 539.645 69.0405C539.989 69.2428 539.523 68.2994 539.647 68.4373C539.742 68.549 541.296 70.8871 541.401 70.9864C541.552 71.1319 541.359 70.4709 541.455 70.5195C541.593 70.5913 542.036 71.3839 542.037 71.2481C542.033 71.144 540.674 67.812 540.845 67.7178C541.141 67.5783 542.583 71.0957 541.731 67.4906C541.725 67.466 541.186 66.8167 541.174 66.7857C541.084 66.22 542.885 68.281 540.999 65.5483C544.755 70.4642 541.834 65.9184 542.798 66.375C543.168 66.554 544.555 68.4756 544.597 68.4791C544.691 68.1378 544.097 67.6208 544.062 67.3326C544.047 67.1776 545.464 68.7857 545.352 68.2865C545.292 68.0278 544.017 66.1762 543.973 66.0771C543.623 65.2343 544.386 66.0425 544.382 65.8118C544.378 65.6577 543.641 64.531 543.623 64.4764C543.617 64.4118 544.921 65.7704 545.234 66.0262C545.472 66.2193 544.981 65.2267 545.127 65.3739C546.007 66.2709 546.959 68.7797 546.263 66.2133C546.221 66.0573 545.679 65.2798 545.667 65.2431C545.54 64.6188 546.531 66.0702 546.87 66.2224C547.451 66.4829 545.894 64.4889 547.257 66.1025C546.567 64.6705 546.072 63.9446 545.002 62.4359ZM663.46 179.009C662.705 178.801 661.587 179.193 662.279 179.388C662.986 179.443 663.54 179.031 663.46 179.009ZM667.945 179.049C668.941 178.909 667.209 178.567 665.995 178.974C666.614 178.94 667.839 179.064 667.945 179.049ZM668.817 178.678C668.381 178.7 668.425 178.938 668.479 178.947C670.189 179.178 670.055 178.609 668.817 178.678ZM682.833 176.955C681.816 177.236 679.082 177.524 679.413 177.788C680.296 177.596 682.478 177.211 682.833 176.955ZM643.138 176.156C642.972 176.403 646.385 177.15 645.109 176.583C644.788 176.446 643.198 176.083 643.138 176.156ZM550.42 172.559C550.406 171.787 549.823 172.885 549.521 173.156C549.245 173.404 548.886 173.442 548.543 174.176C549.168 173.634 549.795 173.095 550.42 172.559ZM561.925 167.584C561.91 167.382 560.937 168.5 560.787 168.801C560.555 169.267 561.942 167.909 561.925 167.584ZM567.188 162.304C566.476 162.735 564.497 165.76 565.192 165.167C565.288 165.079 566.874 162.697 567.188 162.304ZM713.117 164.057C713.014 164.08 711.446 164.958 711.549 165.064C711.68 165.201 713.419 164.007 713.117 164.057ZM617.745 164.54C618.743 164.941 616 162.968 616.622 163.725C616.66 163.766 617.687 164.518 617.745 164.54ZM613.658 162.607C615.668 163.592 608.083 158.147 609.881 159.856C610.012 160.003 613.477 162.54 613.658 162.607ZM570.455 158.435C570.354 158.524 568.698 160.752 568.973 160.583C569.498 160.247 570.768 158.166 570.455 158.435ZM672.948 88.9523C672.753 88.8885 668.765 88.6303 668.837 88.8051C671.039 88.7107 670.203 89.0858 670.301 89.0958C670.681 89.1512 671.191 88.9615 671.708 89.0177C675.29 89.4612 671.638 89.4073 672.472 89.5991C672.755 89.6623 673.352 89.5384 673.475 89.5646C673.87 89.6499 673.842 89.9095 674.109 89.9262C674.731 89.9669 674.072 89.503 674.115 89.4865C674.706 89.3274 676.846 89.9838 675.423 90.1478C676.208 90.4261 676.39 89.9689 677.002 90.2823C678.213 90.9131 676.308 90.433 675.781 90.4149C673.882 90.3394 673.4 90.0587 670.737 89.8753C669.781 89.8149 668.646 89.9928 668.208 89.9897C667.943 89.9708 665.314 89.1181 665.248 90.4185C664.244 90.3005 662.608 89.5211 661.549 89.6427C660.606 89.7516 660.944 90.1829 660.859 90.2078C660.725 90.2444 659.588 90.3202 659.212 90.4313C658.773 90.5597 659.016 90.7029 658.317 90.8637C656.58 91.278 656.553 90.8338 656.365 90.8292C654.186 90.8492 655.235 91.3442 654.779 91.4796C654.362 91.5353 648.237 92.7742 647.044 93.4147C647.529 93.1628 648.016 92.9171 648.503 92.677C647.499 92.6691 646.662 93.435 646.485 92.9477C646.557 93.798 644.48 93.9163 643.917 94.1542C643.7 94.2439 643.765 94.3704 643.492 94.4794C642.423 94.8933 639.937 95.802 639.377 96.1382C636.977 97.5183 643.64 95.2115 644.139 95.1426C643.126 95.4388 637.478 98.099 640.267 97.3247C640.695 97.2047 641.267 96.5585 641.49 96.4508C642.993 95.7347 641.911 96.5366 642.042 96.518C642.267 96.4792 643.155 95.7801 643.438 95.7149C643.531 95.695 643.071 96.1871 644.532 95.6513C643.919 96.1528 639.727 97.6193 639.208 97.9643C639.033 98.0847 640.472 98.0697 636.771 99.1616C636.837 99.1944 636.902 99.2268 636.968 99.2597C635.057 100.22 633.148 101.265 631.295 102.359C631.432 102.125 632.356 101.286 631.052 102.098C630.304 102.569 631.016 102.503 630.956 102.55C630.195 102.843 618.368 110.682 616.227 112.683C615.491 113.27 613.575 115.145 613.417 115.289C612.464 116.09 609.102 118.793 608.478 119.413C608.088 119.791 608.639 119.634 608.269 119.949C607.927 120.241 608.112 119.75 608.006 119.831C607.318 120.319 603.96 123.69 601.592 125.978C602.062 126.587 601.317 126.202 602.148 126.953C603.76 127.429 603.311 127.85 603.629 128.156C604.568 129.048 605.276 129.441 605.364 129.521C606.547 130.583 608.224 132.145 609.525 133.242C609.547 133.256 609.036 132.492 609.832 133.282C610.111 133.564 612.147 136.677 614.721 138.298C614.207 137.808 613.695 137.312 613.182 136.81C614.282 137.796 618.923 141.088 617.888 139.957C617.217 139.245 614.908 138.26 615.101 137.601C616.663 139.276 626.488 145.866 627.233 146.337C627.325 146.421 626.554 146.177 626.689 146.293C626.799 146.395 629.124 147.767 629.389 148.004C629.546 148.153 628.467 147.654 628.51 147.765C628.562 147.872 631.396 149.618 631.686 149.471C630.929 149.176 628.986 147.935 630.136 148.355C630.283 148.41 630.894 148.953 631.074 149.015C632.735 149.604 628.198 147.089 627.5 146.611C630.476 148.1 634.722 150.889 638.192 152.218C639.478 153.046 636.024 151.57 637.493 152.451C640.604 154.267 638.482 152.577 638.596 152.599C639.481 152.78 641.794 154.985 642.124 154.158C643.251 154.737 642.829 154.704 644.561 155.207C644.359 155.07 644.157 154.933 643.956 154.794C645.984 155.032 649.56 157.408 649.267 157.411C648.363 157.446 646.408 156.415 646.227 156.359C645.969 156.281 644.917 156.928 642.322 155.087C640.912 155.221 646.772 157.131 643.996 156.575C645.773 157.262 653.129 159.63 654.276 159.462C654.408 159.445 653.924 158.768 655.717 159.384C656.573 159.673 654.449 159.324 654.826 159.524C655.973 160.745 673.11 160.908 676.252 159.607C676.461 159.568 676.42 159.764 676.626 159.724C677.266 159.606 679.443 158.852 680.581 158.634C678.185 158.89 682.69 157.72 683.777 157.371C685.473 156.887 685.481 157.214 686.238 157.026C689.255 156.271 693.106 153.7 695.6 153.21C695.152 152.651 699.349 151.644 701.091 150.574C702.457 149.765 703.987 148.218 702.134 149.046C704.322 147.726 706.645 145.982 708.613 144.485C708.933 144.242 708.612 144.742 709.156 144.318C709.205 144.278 709.152 144.06 709.616 143.686C713.466 140.52 711.816 142.318 712.639 141.849C713.103 141.574 713.436 141.353 713.671 141.178C711.352 143.119 708.755 145.12 708.026 145.642C708.92 145.608 713.112 141.742 714.54 140.68C714.589 140.647 714.589 140.972 714.636 140.938L714.64 140.935C715.177 140.539 718.109 137.905 717.296 138.2C717.059 138.298 715.731 139.457 714.013 140.891C714.448 140.463 713.923 140.529 713.993 140.453C714.92 139.526 717.385 137.785 718.259 137.05C718.454 136.888 718.323 136.763 718.352 136.734C719.137 136.089 719.174 136.753 719.595 135.651C721.408 134.889 717.083 138.037 717.638 138.084C718.135 138.223 726.556 130.022 726.136 129.59C726.204 129.598 726.368 129.528 726.659 129.341C727.323 128.921 729.579 126.486 729.869 126.027C729.92 125.945 729.535 125.634 729.61 125.545C729.638 125.514 729.734 125.428 729.873 125.296C729.759 125.172 729.647 125.047 729.537 124.926C729.214 125.24 728.924 125.51 728.807 125.618C728.814 125.53 729.07 125.17 729.392 124.766C728.917 124.245 728.489 123.782 728.171 123.474C727.822 123.135 727.83 123.514 727.204 122.922C725.881 121.599 720.417 115.74 718.761 114.204C719.794 115.034 719.699 114.568 718.933 113.89C718.17 113.219 718.55 114.068 718.377 113.964C718.18 113.816 714.843 110.638 714.173 110.167C716.929 112.341 716.54 111.634 714.247 109.656C714.638 109.879 715.047 110.12 715.412 110.327C713.985 109.236 711.309 106.553 710.443 106.064C710.307 105.985 710.612 106.513 710.535 106.469C709.793 106.007 707.518 104.036 707.33 104.011C707.198 103.996 708.143 104.92 707.694 104.712C707.6 104.669 706.756 103.668 705.706 103.039C705.318 102.806 705.416 103.141 705.315 103.088C704.476 102.646 705.142 102.64 703.686 101.747C702.624 101.107 701.655 100.914 700.204 99.9011C704.844 103.327 700.858 100.56 698.727 99.5068C698.389 99.3436 698.466 99.8231 696.623 98.5893C701.1 100.261 695.676 97.5885 694.49 97.0358C694.43 97.0017 694.524 96.7544 693.969 96.4762C693.921 96.4537 693.91 96.6449 693.387 96.4072C688.456 94.271 691.658 95.5328 690.802 94.9482C690.462 94.7055 687.911 93.9336 687.253 93.709C687.102 93.6536 687.236 93.5033 686.648 93.2966C685.607 92.9329 684.623 92.8154 683.945 92.617C683.865 92.594 683.955 92.3061 682.6 92.0029C682.219 91.9194 681.775 91.9013 682.278 92.1319C683.983 92.89 687.292 93.5254 689.166 94.6084C690.836 95.5374 685.269 93.3701 684.993 93.3456C684.887 93.3102 686.009 93.5402 684.926 93.1421C684.015 92.8075 682.105 92.7425 680.723 92.2718C680.615 92.2303 679.608 91.5479 679.646 91.5269C679.696 91.5135 681.47 91.8747 681.25 91.6922C681.218 91.6667 680.106 91.3819 679.982 91.2598C679.833 91.106 679.603 89.9228 679.364 89.8389C678.758 89.6311 679.106 89.9663 678.71 89.8607C677.871 89.6146 674.841 88.7556 674.691 89.1358C675.189 89.2337 675.689 89.3391 676.188 89.4501C673.388 89.0267 674.557 89.3974 674.151 89.4029C673.719 89.4209 673.882 89.0998 672.948 88.9523ZM605.816 156.257C606.406 156.793 609.109 158.747 608.166 157.838C608.014 157.7 605.965 156.169 605.816 156.257ZM572.623 155.034C572.195 155.134 571.336 156.575 570.695 157.296C571.038 157.205 572.17 155.655 572.623 155.034ZM573.506 154.916C572.925 155.624 571.728 157.015 572.267 156.726C572.321 156.688 573.611 155.004 573.506 154.916ZM573.675 154.429C573.163 154.581 572.365 155.909 571.747 156.677C572.178 156.572 573.029 155.136 573.675 154.429ZM726.728 153.664C726.212 153.999 724.42 155.57 725.329 155.007C725.475 154.917 726.875 153.715 726.728 153.664ZM641.154 154.22C640.74 153.998 636.886 152.309 638.136 153.15C638.298 153.289 642.518 155.066 641.154 154.22ZM633.917 150.517C634.373 150.792 635.542 151.391 635.734 151.333C635.97 151.265 634.229 150.451 633.917 150.517ZM630.677 150.194C630.504 150.109 627.085 147.671 629.965 150.076C630.112 150.207 632.502 151.273 631.66 150.559C631.077 150.063 630.832 150.279 630.677 150.194ZM627.914 147.289C627.388 147.089 621.658 143.015 622.719 144.111C622.889 144.339 627.985 147.859 627.914 147.289ZM610.226 135.151C610.297 135.318 612.468 137.399 612.606 137.513C615.094 139.76 619.852 143.384 622.765 145.326C623.501 145.825 623.237 145.444 623.557 145.652C623.809 145.814 623.342 145.875 624.244 146.333C624.672 146.55 623.627 145.47 623.937 145.599C624.135 145.685 624.956 146.37 625.294 146.466C625.39 146.489 624.654 145.649 624.385 145.484C624.004 145.253 624.231 145.691 623.824 145.423C622.474 144.527 621.368 143.547 620.116 142.648C620.004 142.568 620.766 143.329 619.819 142.643C619.673 142.536 618.945 141.696 617.794 140.873C614.802 139.582 613.479 137.554 610.226 135.151ZM626.506 145.964C626.186 145.611 625.11 145.234 625.574 145.762C626.057 146.11 626.576 146.042 626.506 145.964ZM622.514 143.54C622.102 143.269 621.224 143.118 621.98 143.689C622.195 143.708 623.406 144.126 622.514 143.54ZM740.289 141.126C740.421 140.877 738.852 142.057 738.525 142.51C737.781 143.552 740.019 141.642 740.289 141.126ZM621.033 142.461C620.099 141.787 617.825 140.066 619.205 141.503C619.478 141.785 620.307 142.338 620.739 142.674C619.539 141.417 620.888 142.769 621.033 142.461ZM617.305 140.382C617.624 140.633 618.952 141.57 619.018 141.547C619.22 141.461 617.557 140.349 617.305 140.382ZM587.184 139.761C587.015 139.983 586.902 140.153 586.857 140.261C586.863 140.267 586.87 140.273 586.877 140.279C586.963 140.205 587.163 140.031 587.327 139.903C587.28 139.855 587.231 139.808 587.184 139.761ZM745.946 135.239C744.419 136.967 746.431 135.309 744.17 137.39C745.24 136.735 746.622 135.15 745.946 135.239ZM748.471 132.595C749.253 131.375 747.105 133.566 747.497 133.542C747.534 133.524 748.434 132.651 748.471 132.595ZM607.301 132.744C606.833 132.194 605.862 131.68 606.616 132.462C607.28 133.148 607.338 132.792 607.301 132.744ZM734.463 130.903C734.537 130.994 734.615 131.089 734.693 131.185L734.695 130.882C734.619 130.794 734.542 130.705 734.464 130.616L734.463 130.903ZM734.851 130.506C734.954 130.599 735.058 130.694 735.162 130.789L735.166 130.382C735.062 130.262 734.958 130.142 734.855 130.02L734.851 130.506ZM734.468 130.155C734.543 130.223 734.62 130.294 734.699 130.366L734.702 129.842C734.625 129.752 734.547 129.662 734.47 129.572L734.468 130.155ZM604.394 122.355C604.344 122.365 603.149 123.244 602.989 123.523C602.563 123.689 601.923 124.869 601.278 125.603C601.34 125.676 601.406 125.749 601.472 125.827C602.902 124.242 604.526 122.363 604.394 122.355ZM729.66 124.804C729.769 124.925 729.882 125.051 729.997 125.178C730.095 125.085 730.209 124.976 730.335 124.857C730.204 124.734 730.079 124.618 729.96 124.508C729.862 124.608 729.76 124.706 729.66 124.804ZM729.759 124.321C726.954 121.717 727.738 122.657 729.504 124.628C729.587 124.526 729.672 124.421 729.759 124.321ZM606.512 120.449C607.522 119.159 605.102 121.386 605.255 121.517C605.312 121.561 606.466 120.504 606.512 120.449ZM734.524 120.6L734.523 120.899C734.595 120.783 734.675 120.668 734.757 120.552L734.759 120.218C734.673 120.352 734.596 120.482 734.524 120.6ZM574.325 120.491C574.078 120.241 573.954 120.163 574.16 120.516C574.165 120.524 574.191 120.553 574.229 120.6C574.261 120.563 574.293 120.527 574.325 120.491ZM734.913 119.982L734.911 120.338C735.013 120.202 735.118 120.064 735.228 119.927L735.229 119.499C735.121 119.662 735.015 119.826 734.913 119.982ZM734.532 119.362L734.53 119.68C734.6 119.601 734.678 119.508 734.762 119.41L734.764 119.097C734.686 119.185 734.609 119.275 734.532 119.362ZM723.416 117.927C723.783 118.389 725.239 119.757 724.722 119.026C724.498 118.709 723.608 117.906 723.416 117.927ZM566.598 115.663C565.314 114.488 568.729 118.705 568.96 118.868C568.964 118.643 566.722 115.784 566.598 115.663ZM720.338 115.114C721.084 115.975 722.603 117.217 722.068 116.448C721.977 116.302 720.447 115.057 720.338 115.114ZM616.273 112.34C616.225 112.166 612.62 115.096 612.499 115.478C613.016 114.916 616.305 112.47 616.273 112.34ZM746.264 114.676C745.246 113.585 743.573 113.012 744.894 114.286C745.035 114.42 746.283 114.879 746.264 114.676ZM720.152 113.852C717.969 110.994 718.617 113.152 719.144 113.494C719.221 113.542 720.201 113.918 720.152 113.852ZM716.01 110.201C716.615 110.751 717.65 111.953 717.732 111.593L717.73 111.591C717.156 111.119 716.582 110.655 716.01 110.201ZM562.84 110.736C562.614 110.367 560 106.946 560.856 108.283C560.928 108.401 562.685 110.78 562.84 110.736ZM584.393 110.432C584.24 110.326 584.162 110.308 584.244 110.458C584.248 110.465 584.268 110.489 584.297 110.527C584.328 110.495 584.361 110.463 584.393 110.432ZM739.541 107.198C739.938 107.665 742.482 110.163 742.562 110.209C743.453 110.7 740.078 107.216 739.541 107.198ZM562.037 110.118C561.28 108.361 557.234 104.696 559.53 107.394C559.575 107.445 559.38 106.734 560.193 107.837C560.264 107.934 560.126 108.282 561.305 109.593C561.542 109.854 562.041 110.15 562.037 110.118ZM714.622 109.111C715.017 109.531 714.999 109.812 715.236 109.941C715.313 109.982 715.463 109.828 715.723 109.976C715.381 109.706 714.992 109.398 714.622 109.111ZM561.986 107.036C562.42 107.55 563.476 109.149 563.687 109.122C563.238 108.599 562.19 107.004 561.986 107.036ZM561.389 108.246C563.215 110.414 560.099 105.974 560.319 106.706C560.338 106.76 561.201 108.024 561.389 108.246ZM625.734 105.259C625.621 105.299 624.334 106.201 624.44 106.291C625.178 106.001 626.229 105.076 625.734 105.259ZM562.056 104.389C562.017 104.355 562.084 104.823 562.11 104.869C563.133 106.712 562.875 105.244 562.056 104.389ZM552.998 96.7469C552.918 96.6714 552.695 96.74 552.718 96.7869C552.902 97.1575 557.975 103.706 558.771 104.571C558.168 103.59 553.263 97.0199 552.998 96.7469ZM633.888 100.29C632.698 100.353 631.332 102.282 632.763 101.367C632.899 101.278 633.927 100.297 633.888 100.29ZM700.715 99.4015C700.588 99.5085 702.558 100.802 702.615 100.824C703.867 101.284 701.569 99.8914 700.715 99.4015ZM701.467 100.288C700.997 99.7364 699.239 99.0139 699.616 99.3361C699.877 99.5471 701.931 100.828 701.467 100.288ZM634.767 99.8448C633.554 100.511 634.7 100.532 635.352 99.9411C635.394 99.9033 634.848 99.8012 634.767 99.8448ZM638.463 98.1968C638.74 97.6563 636.796 98.9382 636.354 99.069L636.352 99.0708C636.218 99.1081 637.776 97.4139 635.254 99.3633C636.787 98.6975 635.261 99.5666 635.312 99.6231C635.469 99.7642 637.873 98.358 638.463 98.1968ZM557.813 98.5021C557.613 98.2273 557.231 98.3842 557.25 98.4639C557.445 99.2015 558.485 99.4302 557.813 98.5021ZM697.701 97.5028C698.175 97.8735 700.853 99.4738 699.817 98.6456C699.728 98.5668 697.753 97.3565 697.701 97.5028ZM697.154 97.4955C696.808 97.2713 696.188 97.3377 696.223 97.3738C696.526 97.6753 697.664 97.9944 697.154 97.4955ZM554.065 95.0808C554.016 95.0394 553.941 95.4824 553.972 95.5477C554.655 96.9138 554.898 95.8522 554.065 95.0808ZM693.552 95.7331C693.167 95.2984 691.816 94.6983 692.123 95.0826C692.157 95.1185 693.284 95.7811 693.552 95.7331ZM548.69 88.6307C548.136 88.1557 546.888 86.0574 546.701 86.3395L546.702 86.3413C547.578 87.5487 548.457 88.7505 549.337 89.9443C549.049 88.3671 550.641 90.9511 550.791 92.1047C551.148 92.3628 551.515 92.6325 551.877 92.895C551.604 93.9616 552.853 93.3945 553.098 94.9209C555.004 95.8034 550.111 90.816 550.347 89.6445C554.596 95.7346 548.185 85.1541 550.155 90.1242C548.049 86.365 549.208 89.0729 548.69 88.6307ZM602.511 94.652C602.199 95.2626 605.891 92.5116 604.779 93.0549C604.533 93.1695 602.94 94.314 602.511 94.652ZM689.464 93.6036C688.437 93.3144 690.779 94.5061 691.18 94.4558C690.745 94.2445 689.849 93.7121 689.464 93.6036ZM553.352 91.8121C553.728 92.4028 554.869 94.131 555.22 94.3013C554.745 93.7113 553.676 91.9417 553.352 91.8121ZM642.477 92.4571C642.048 92.4871 638.064 94.261 638.788 94.265C639.047 94.2473 641.253 93.0668 641.372 93.0495C641.543 93.0133 640.921 93.5807 642.126 93.0458C642.017 92.9767 642.621 92.4353 642.477 92.4571ZM554.105 93.3329C554.069 93.2987 553.83 93.3669 553.839 93.4074C554.281 94.4313 555.016 94.2178 554.105 93.3329ZM642.537 93.6381C642.822 93.39 641.799 93.5541 641.416 93.7799C641.318 93.8387 642.17 93.9552 642.537 93.6381ZM680.638 89.8099C682.665 91.254 682.605 90.5581 682.804 90.6111C683.224 90.7411 684.156 91.2729 684.927 91.4851C684.026 91.2962 683.059 91.1067 682.128 90.9509C682.894 91.1475 688.801 93.5498 689.005 93.5491C689.261 93.4246 687.326 92.7424 687.268 92.7097C687.197 92.6558 687.091 92.008 686.919 91.923C686.652 91.7351 681.46 90.0989 680.638 89.8099ZM644.757 92.7715C645.476 92.369 643.552 92.5656 642.895 93.1857C642.551 93.4969 644.626 92.834 644.757 92.7715ZM648.852 92.181C648.707 91.9921 646.953 92.7942 647.37 92.7751C647.634 92.7566 648.931 92.2938 648.852 92.181ZM652.926 91.5705C654.155 91.0559 651.481 91.562 650.7 92.0211C651.076 91.9013 652.839 91.5998 652.926 91.5705ZM645.872 91.3179C644.324 91.4143 644.243 92.2219 645.307 91.8594C645.723 91.7206 646.093 91.3064 645.872 91.3179ZM647.753 91.3979C648.067 91.0613 647.412 91.2696 647.153 91.2616C645.573 91.2156 646.451 91.6168 647.753 91.3979ZM655.975 90.4985C655.718 90.388 649.638 91.6815 653.148 91.1744C653.354 91.122 656.695 90.6304 655.975 90.4985ZM652.726 89.6572C652.844 89.4913 652.195 89.6977 651.725 89.7463L651.729 89.7445C651.197 89.7945 649.778 90.0444 648.901 90.5439C650.169 90.2119 651.453 89.9132 652.726 89.6572ZM655.682 89.9262C654.943 89.9209 653.201 90.5095 653.765 90.5203C654.107 90.514 656.521 89.9213 655.682 89.9262ZM549.524 88.1456C549.341 87.7452 546.617 84.0554 547.518 85.6836C547.597 85.8258 549.529 88.3916 549.524 88.1456ZM546.535 85.9453C546.034 84.7632 544.336 82.8464 544.629 83.4397C544.757 83.699 546.233 85.8788 546.535 85.9453ZM547.629 83.0581C548.01 83.5786 548.875 84.9633 549.115 85.2421C549.957 86.2239 548.254 83.3964 547.629 83.0581ZM540.28 74.6893C541.278 76.4357 542.929 79.3107 543.981 80.9977C544.281 81.481 544.724 81.8458 544.985 82.2532C545.403 82.9067 544.826 82.4704 544.849 82.5185L544.851 82.5221C545.329 83.4258 546.483 84.2103 545.294 82.404C545.792 82.9871 546.282 83.5584 546.788 84.1483C545.391 81.6571 544.948 82.224 544.506 81.5374C543.891 80.5762 544.414 80.326 544.691 80.4127C543.875 79.849 541.611 76.5509 540.28 74.6893ZM619.758 83.0872C620.258 82.6982 617.968 83.7896 618.09 83.992C618.135 84.0475 619.686 83.1375 619.758 83.0872ZM543.617 77.6964C545.831 80.6223 544.652 79.7573 544.887 80.3872C545.39 81.7209 546.063 80.6663 546.005 80.4963C545.751 79.8082 543.993 78.0489 543.617 77.6964ZM537.743 73.2322C538.566 75.3765 540.727 77.2508 540.899 77.5328C541.075 77.826 540.512 77.5616 540.548 77.631C540.639 77.7992 542.71 80.783 542.829 80.9123C542.914 81.0027 542.911 80.2128 543.45 80.7488C542.406 79.6947 538.805 74.096 538.583 73.8408C538.404 73.6468 539.128 75.5683 537.6 72.8052L537.743 73.2322ZM545.411 79.1372C545.608 80.2664 546.982 80.4477 545.903 79.248C545.852 79.1907 545.405 79.0874 545.411 79.1372ZM539.358 74.0679C539.999 75.0252 540.889 76.58 541.461 76.9623C540.805 75.9946 539.923 74.4471 539.358 74.0679ZM645.954 71.8131C645.835 71.8234 643.628 72.3858 643.536 72.4291C641.393 73.2139 648.046 71.5158 645.954 71.8131ZM652.902 70.2778C652.349 70.3689 649.925 70.7288 649.913 70.832C649.913 70.971 652.657 70.5594 652.902 70.2778Z" fill="white"/>
<path d="M649.868 179.519C648.424 179 653.567 180.001 651.854 179.908C651.759 179.907 649.943 179.551 649.868 179.519Z" fill="white"/>
<path d="M546.739 173.776C547.565 173.147 544.731 177.738 543.932 178.355C544.422 177.39 545.892 175.566 546.386 174.704C546.443 174.605 545.51 174.709 546.739 173.776Z" fill="white"/>
<path d="M539.644 173.801C539.563 174.241 537.064 178.055 536.936 177.837C536.831 177.63 539.236 174.386 539.644 173.801Z" fill="white"/>
<path d="M638.694 176.496C639.326 176.484 641.529 177.281 642.593 177.582C641.835 177.636 639.929 176.92 638.694 176.496Z" fill="white"/>
<path d="M543.241 173.863C543.38 173.892 542.434 175.312 542.333 175.424C541.676 176.131 542.81 174.342 543.241 173.863Z" fill="white"/>
<path d="M704.594 170.9C705.064 171.045 701.326 172.733 701.018 172.771C699.766 173.045 704.359 171.134 704.594 170.9Z" fill="white"/>
<path d="M626.526 170.62C626.718 170.516 628.468 171.538 629.186 171.832C628.982 171.942 627.203 170.93 626.526 170.62Z" fill="white"/>
<path d="M703.687 170.954C702.546 171.195 707.671 168.74 705.426 170.146C705.32 170.215 703.777 170.93 703.687 170.954Z" fill="white"/>
<path d="M544.742 163.677C544.864 163.714 543.617 165.515 543.548 165.591C542.769 166.421 544.237 164.253 544.742 163.677Z" fill="white"/>
<path d="M547.251 157.696C545.844 160.198 547.261 158.02 547.469 158.072C548.309 158.291 544.922 160.915 544.224 162.182C544.129 162.354 545.197 161.317 544.958 161.773C544.172 163.265 540.21 166.661 543.559 162.344L543.557 162.347C544.442 161.213 544.09 162.046 544.131 162C546.166 159.69 545.322 160.081 545.558 159.662C546.066 158.764 546.419 159.223 547.251 157.696Z" fill="white"/>
<path d="M575.268 154.682C575.074 155.383 573.863 156.575 573.31 157.414C572.544 158.575 571.976 161.104 571.723 159.636C572.903 157.966 574.084 156.314 575.268 154.682Z" fill="white"/>
<path d="M546.63 157.511C546.726 157.417 546.07 159.273 545.431 159.464C544.941 159.607 546.384 157.752 546.63 157.511Z" fill="white"/>
<path d="M574.425 157.098C574.297 157.783 572.481 159.724 573.09 158.759C573.259 158.49 574.098 157.536 574.425 157.098Z" fill="white"/>
<path d="M739.281 144.205C738.073 145.675 739.098 145.247 737.511 146.624C737.599 146.462 737.687 146.299 737.775 146.137C735.78 148.273 732.95 150.55 730.322 152.836C729.656 153.413 730.644 153.006 729.708 153.691C728.958 154.239 727.983 154.648 728.316 154.277C728.397 154.188 729.955 153.128 730.656 152.483C732.72 150.582 731.999 150.821 732.115 150.71C732.249 150.581 733.706 149.534 734.423 148.851C736.165 147.187 736.782 146.364 739.281 144.205Z" fill="white"/>
<path d="M577.549 151.508C578.106 151.047 576.926 152.801 576.295 153.29C576.165 153.206 577.451 151.59 577.549 151.508Z" fill="white"/>
<path d="M747.812 135.075C747.831 135.163 746.638 136.432 746.587 136.467C746.565 136.483 746.544 136.496 746.525 136.509C746.91 136.402 742.958 140.654 744.023 139.934C742.995 141.258 743.871 139.469 743.126 140.484C742.877 140.821 743.026 141.555 741.158 143.032L741.154 143.037C740.611 143.464 741.051 142.802 740.925 142.855C740.864 142.887 739.176 144.174 740.377 142.888C742.216 140.899 740.877 143.022 741.892 141.987C742.042 141.838 743.626 139.701 743.46 139.766C743.436 139.782 742.954 140.39 742.844 140.462C742.427 140.737 742.453 140.435 742.399 140.479C742.23 140.64 739.434 143.966 738.801 144.183C738.611 144.285 743.382 139.075 743.524 138.949C743.66 138.847 743.994 139.256 744.151 139.165C744.235 139.117 745.952 136.967 746.233 136.721C746.313 136.654 746.379 136.604 746.427 136.569C746.03 136.77 747.725 134.903 747.812 135.075Z" fill="white"/>
<path d="M585.932 142.036C586.799 141.408 584.471 144.026 585.094 142.977C585.129 142.923 585.892 142.066 585.932 142.036Z" fill="white"/>
<path d="M567.55 118.928C567.501 118.439 569.353 120.837 569.421 120.943C569.893 121.757 567.941 119.703 567.55 118.928Z" fill="white"/>
<path d="M582.333 107.311C582.252 107.154 582.687 106.076 583.552 107.703C583.707 107.994 582.703 107.188 584.03 108.935C582.987 107.675 582.833 108.253 582.333 107.311Z" fill="white"/>
<path d="M583.277 106.953C583.631 107.191 584.253 107.772 584.685 108.126C584.417 108.172 584.062 108.023 583.277 106.953Z" fill="white"/>
<path d="M580.179 103.371C580.291 103.274 581.58 104.825 581.667 104.965C582.234 105.898 580.579 103.975 580.179 103.371Z" fill="white"/>
<path d="M553.105 100.161C553.736 100.619 554.949 102.355 555.725 103.312C555.557 103.594 553.658 100.818 553.105 100.161Z" fill="white"/>
<path d="M576.78 99.0217C577.879 100.355 578.979 101.673 580.081 102.974C579.783 102.972 576.536 99.1583 576.78 99.0217Z" fill="white"/>
<path d="M575.401 96.498C576.875 97.8886 575.65 97.2072 575.655 97.2629C575.711 97.404 576.802 98.3789 576.388 98.2931L576.131 98.0787C574.937 97.013 575.294 96.3964 575.401 96.498Z" fill="white"/>
<path d="M598.014 97.7008C598.447 96.9725 601.37 95.0375 600.96 95.5169C600.852 95.6215 597.89 97.989 598.014 97.7008Z" fill="white"/>
<path d="M552.271 96.9104C551.367 96.4712 549.186 92.9404 551.038 95.0935C551.214 95.3003 551.726 96.341 552.271 96.9104Z" fill="white"/>
<path d="M546.117 87.8022C547.131 88.5444 547.437 89.5012 548.379 90.7856C548.633 91.1294 548.703 90.9433 548.73 90.9782C549.169 91.5774 548.69 91.2387 548.954 91.6123C549.107 91.8426 552.865 96.6154 552.108 96.0874C551.544 95.7112 546.873 88.9024 546.117 87.8022Z" fill="white"/>
<path d="M571.792 94.7356C571.698 94.4901 572.331 94.9859 572.559 95.3261C572.964 95.9342 572.098 95.5187 571.792 94.7356Z" fill="white"/>
<path d="M569.563 89.054C568.998 87.8828 571.591 91.4483 570.561 90.4276C570.502 90.3673 569.601 89.1258 569.563 89.054Z" fill="white"/>
<path d="M566.316 87.5223C566.822 87.7685 567.04 88.0131 567.822 89.1739C566.529 87.554 567.487 89.2368 566.316 87.5223Z" fill="white"/>
<path d="M564.447 81.7136C564.673 82.0627 565.368 82.9875 565.428 83.1145C565.453 83.1676 565.47 83.2095 565.479 83.2398C565.938 83.5342 569.005 88.0593 569.149 88.3345C569.872 89.8165 565.592 83.7558 565.5 83.5178C565.456 83.41 565.433 83.3326 565.426 83.2853C565.187 83.1159 564.348 81.983 564.447 81.7136Z" fill="white"/>
<path d="M562.355 81.9098C562.634 82.3532 563.529 83.633 563.404 83.7122C562.945 83.0774 562.311 82.1938 562.355 81.9098Z" fill="white"/>
<path d="M540.385 78.9664C541.23 80.3961 543.579 83.1997 542.287 82.266C541.638 81.7971 541.624 81.2074 541.573 81.1249C541.077 80.3316 539.931 78.7599 540.385 78.9664Z" fill="white"/>
<path d="M540.783 81.4538C540.709 81.1902 541.181 81.4531 541.622 82.0861C541.666 82.3895 540.958 82.0663 540.783 81.4538Z" fill="white"/>
<path d="M538.452 77.2966C537.828 75.8405 541.699 81.6598 541.889 82.0152C541.498 81.7271 538.539 77.5063 538.452 77.2966Z" fill="white"/>
<path d="M540.489 81.0886C539.914 80.6794 537.272 76.3713 538.185 77.3675C538.331 77.5351 541.324 81.6998 540.489 81.0886Z" fill="white"/>
<path d="M560.936 77.2458C560.944 77.1525 562.591 78.7225 563.075 79.5896C563.989 81.2384 560.961 77.3617 560.936 77.2458Z" fill="white"/>
<path d="M553.478 69.5729C554.197 70.2086 555.392 71.9557 556.125 73.085C555.878 73.278 554.028 70.2557 553.478 69.5729Z" fill="white"/>
<path d="M553.027 68.4155C553.061 69.1481 551.526 66.4759 552.413 67.3199C552.452 67.3623 553.013 68.3694 553.027 68.4155Z" fill="white"/>
<path d="M545.289 61.1096C545.223 60.703 546.245 61.9655 546.488 62.4995C547.029 63.6907 545.325 61.2575 545.289 61.1096Z" fill="white"/>
<path d="M185.86 75.5619C185.86 76.6963 186.779 77.6159 187.914 77.6159H211.398C212.532 77.6159 213.452 78.5355 213.452 79.6698V95.7595C213.452 96.8939 212.532 97.8135 211.398 97.8135H187.914C186.779 97.8135 185.86 98.7331 185.86 99.8675V172.216C185.86 173.351 184.94 174.27 183.806 174.27H167.716C166.582 174.27 165.662 173.351 165.662 172.216V99.8675C165.662 98.7331 164.742 97.8135 163.608 97.8135H140.123C138.989 97.8135 138.069 96.8939 138.069 95.7595V79.6698C138.069 78.5355 138.989 77.6159 140.123 77.6159H163.608C164.742 77.6159 165.662 76.6963 165.662 75.5619V42.8082C165.662 41.6738 166.582 40.7542 167.716 40.7542H183.806C184.94 40.7542 185.86 41.6738 185.86 42.8082V75.5619Z" fill="white"/>
<path d="M20.9257 172.216C20.9257 173.35 20.0061 174.27 18.8718 174.27H2.78211C1.64773 174.27 0.728131 173.35 0.728131 172.216V79.6698C0.728131 78.5355 1.64773 77.6159 2.78211 77.6159H18.8718C20.0061 77.6159 20.9257 78.5355 20.9257 79.6698V172.216Z" fill="white"/>
<path d="M64.1992 109.701C64.1992 111.418 66.1821 112.377 67.5285 111.311L109.896 77.7495C110.785 77.0451 112.077 77.1949 112.781 78.0841L122.771 90.696C123.476 91.5852 123.326 92.877 122.437 93.5814L93.379 116.599C92.5378 117.266 92.3513 118.467 92.951 119.357L127.797 171.068C128.716 172.432 127.739 174.27 126.094 174.27H106.691C106.008 174.27 105.369 173.93 104.987 173.364L77.2486 132.199C76.5799 131.207 75.2078 130.994 74.2698 131.737L64.9777 139.098C64.4859 139.488 64.1992 140.081 64.1992 140.708V172.216C64.1992 173.35 63.2796 174.27 62.1452 174.27H46.0555C44.9211 174.27 44.0015 173.35 44.0015 172.216V2.54299C44.0015 1.40861 44.9211 0.489012 46.0555 0.489012H62.1452C63.2796 0.489012 64.1992 1.40861 64.1992 2.54299V109.701Z" fill="white"/>
<path d="M249.244 80.8068C249.244 82.432 251.055 83.4311 252.493 82.6723C258.607 79.4438 265.576 77.6159 272.972 77.6159C297.231 77.6161 316.897 97.282 316.897 121.541V172.216C316.897 173.35 315.977 174.27 314.843 174.27H298.753C297.619 174.27 296.699 173.35 296.699 172.216V121.541C296.699 108.437 286.076 97.8137 272.972 97.8135C259.868 97.8136 249.244 108.437 249.244 121.541V172.216C249.244 173.35 248.325 174.27 247.19 174.27H231.101C229.966 174.27 229.047 173.35 229.047 172.216V2.54226C229.047 1.40788 229.966 0.488281 231.101 0.488281H247.19C248.325 0.488281 249.244 1.40788 249.244 2.54226V80.8068Z" fill="white"/>
<path d="M352.69 130.345C352.69 143.449 363.314 154.072 376.418 154.072C389.522 154.072 400.146 143.449 400.146 130.345V79.6698C400.146 78.5355 401.065 77.6159 402.2 77.6159H418.289C419.424 77.6159 420.343 78.5355 420.343 79.6698V172.216C420.343 173.35 419.424 174.27 418.289 174.27H402.2C401.065 174.27 400.146 173.35 400.146 172.216V171.079C400.146 169.454 398.335 168.454 396.897 169.213C390.783 172.442 383.814 174.27 376.418 174.27C352.159 174.27 332.492 154.604 332.492 130.345V79.6698C332.492 78.5355 333.412 77.6159 334.546 77.6159H350.636C351.77 77.6159 352.69 78.5355 352.69 79.6698V130.345Z" fill="white"/>
<path d="M455.96 79.3173C461.485 77.36 467.128 77.3061 472.224 78.1024C481.372 79.5319 490.267 83.9447 497.038 88.0463C498.008 88.6341 498.293 89.9033 497.688 90.863L489.11 104.475C488.505 105.434 487.238 105.72 486.265 105.136C480.531 101.696 474.406 98.8856 469.107 98.0575C466.303 97.6195 464.221 97.8181 462.704 98.3555C461.338 98.8394 459.878 99.7819 458.438 101.936C457.435 103.436 456.923 105.916 457.811 108.196C458.548 110.089 461.055 113.807 469.969 116.189C483.26 119.742 492.045 126.899 495.731 136.366C499.267 145.445 497.336 154.809 493.075 161.182C489.341 166.766 484.439 170.562 478.763 172.573C473.237 174.531 467.595 174.585 462.498 173.788C453.35 172.359 444.455 167.946 437.684 163.844C436.714 163.257 436.429 161.987 437.034 161.028L445.613 147.415C446.218 146.456 447.484 146.17 448.457 146.754C454.192 150.194 460.317 153.004 465.616 153.832C468.419 154.27 470.5 154.073 472.018 153.535C473.384 153.051 474.844 152.109 476.285 149.955C477.287 148.455 477.798 145.975 476.911 143.695C476.173 141.802 473.666 138.084 464.753 135.702C451.462 132.149 442.677 124.992 438.991 115.525C435.455 106.446 437.387 97.0814 441.647 90.7091C445.382 85.1244 450.283 81.3283 455.96 79.3173Z" fill="white"/>
<path d="M272.972 119.433C279.033 119.433 283.947 124.347 283.947 130.409C283.947 134.14 282.085 137.436 279.24 139.419C278.419 139.992 277.949 140.998 278.228 141.96L280.566 150.025C280.947 151.338 279.962 152.65 278.594 152.65H267.349C265.981 152.65 264.996 151.339 265.376 150.025L267.714 141.959C267.993 140.997 267.523 139.991 266.702 139.418C263.857 137.435 261.996 134.139 261.996 130.409C261.996 124.347 266.91 119.433 272.972 119.433Z" fill="white"/>
<path d="M10.7729 37.2206C16.3503 37.2206 20.8717 41.742 20.8717 47.3195C20.8715 52.8967 16.3502 57.4183 10.7729 57.4183C5.19558 57.4183 0.67427 52.8967 0.674072 47.3195C0.674072 41.742 5.19546 37.2206 10.7729 37.2206Z" fill="white"/>
</mask>
<g mask="url(#mask0_30_2)">
<rect x="-121.996" y="-412.228" width="1000" height="1000" fill="#D9D9D9"/>
<rect x="-121.996" y="-412.228" width="1000" height="1000" fill="url(#paint0_radial_30_2)"/>
</g>
<defs>
<radialGradient id="paint0_radial_30_2" cx="0" cy="0" r="1" gradientUnits="userSpaceOnUse" gradientTransform="translate(378.004 -491.981) rotate(90) scale(1329.63 3710.1)">
<stop offset="0.0443377" stop-color="#1BDAFF"/>
<stop offset="1" stop-color="#0016A3"/>
</radialGradient>
</defs>
</svg>
